# xmcd CD database file
#
# Track frame offsets:
#	150
#	47550
#	88650
#	118650
#	162075
#	202275
#	270375
#
# Disc length: 4200 seconds
#
# Revision: 0
# Processed by: cddbd v1.5.2PL0 Copyright (c) Steve Scherf et al.
# Submitted via: CDex 1.51
#
DISCID=5b106607
DTITLE=Larry Smith and Company - Live At The Slovak Philharmonic
DYEAR=1995
DGENRE=Jazz
TTITLE0=I Hear A Rhapsody
TTITLE1=In A Sentimental Mood
TTITLE2=Take The A Train
TTITLE3=Hi Fly
TTITLE4=Body And Soul
TTITLE5=A Night In Tunisia
TTITLE6=Seven Steps To Heaven
EXTD=YEAR: 1995
EXTT0=
EXTT1=
EXTT2=
EXTT3=
EXTT4=
EXTT5=
EXTT6=
PLAYORDER=
